<svg width="23" height="23" viewBox="0 0 23 23" fill="none" xmlns="http://www.w3.org/2000/svg">
<path d="M11.5346 5.72681C8.42911 5.72681 5.92422 8.23169 5.92422 11.3372C5.92422 14.4426 8.42911 16.9475 11.5346 16.9475C14.64 16.9475 17.1449 14.4426 17.1449 11.3372C17.1449 8.23169 14.64 5.72681 11.5346 5.72681ZM11.5346 14.9846C9.52774 14.9846 7.88712 13.3489 7.88712 11.3372C7.88712 9.32544 9.52286 7.6897 11.5346 7.6897C13.5463 7.6897 15.182 9.32544 15.182 11.3372C15.182 13.3489 13.5414 14.9846 11.5346 14.9846V14.9846ZM18.683 5.49731C18.683 6.22485 18.0971 6.80591 17.3744 6.80591C16.6469 6.80591 16.0658 6.21997 16.0658 5.49731C16.0658 4.77466 16.6518 4.18872 17.3744 4.18872C18.0971 4.18872 18.683 4.77466 18.683 5.49731ZM22.3988 6.82544C22.3158 5.07251 21.9154 3.51978 20.6313 2.24048C19.352 0.961181 17.7992 0.560791 16.0463 0.4729C14.2397 0.370361 8.82462 0.370361 7.01798 0.4729C5.26993 0.555908 3.71719 0.956299 2.43301 2.2356C1.14883 3.51489 0.753326 5.06763 0.665436 6.82056C0.562897 8.6272 0.562897 14.0422 0.665436 15.8489C0.748444 17.6018 1.14883 19.1545 2.43301 20.4338C3.71719 21.7131 5.26505 22.1135 7.01798 22.2014C8.82462 22.304 14.2397 22.304 16.0463 22.2014C17.7992 22.1184 19.352 21.718 20.6313 20.4338C21.9106 19.1545 22.3109 17.6018 22.3988 15.8489C22.5014 14.0422 22.5014 8.63208 22.3988 6.82544V6.82544ZM20.0648 17.7874C19.684 18.7444 18.9467 19.4817 17.9848 19.8674C16.5443 20.4387 13.1264 20.3069 11.5346 20.3069C9.94278 20.3069 6.51993 20.4338 5.08438 19.8674C4.12735 19.4866 3.39005 18.7493 3.0043 17.7874C2.43301 16.3469 2.56485 12.929 2.56485 11.3372C2.56485 9.74536 2.4379 6.32251 3.0043 4.88696C3.38516 3.92993 4.12247 3.19263 5.08438 2.80688C6.52481 2.2356 9.94278 2.36743 11.5346 2.36743C13.1264 2.36743 16.5492 2.24048 17.9848 2.80688C18.9418 3.18774 19.6791 3.92505 20.0648 4.88696C20.6361 6.32739 20.5043 9.74536 20.5043 11.3372C20.5043 12.929 20.6361 16.3518 20.0648 17.7874Z" fill="black"/>
</svg>
