<svg width="26" height="21" viewBox="0 0 26 21" fill="none" xmlns="http://www.w3.org/2000/svg">
<path d="M23.0187 5.45625C23.0346 5.67832 23.0346 5.90044 23.0346 6.12251C23.0346 12.8959 17.8792 20.7005 8.45655 20.7005C5.55362 20.7005 2.85694 19.8598 0.588531 18.4004C1.00098 18.448 1.39752 18.4639 1.82584 18.4639C4.2211 18.4639 6.42608 17.6549 8.18687 16.2748C5.93433 16.2272 4.04664 14.752 3.39625 12.7215C3.71353 12.769 4.03077 12.8008 4.36392 12.8008C4.82393 12.8008 5.28399 12.7373 5.71226 12.6263C3.36456 12.1504 1.60372 10.0882 1.60372 7.59775V7.53433C2.2858 7.91504 3.07901 8.15298 3.91968 8.18467C2.53961 7.2646 1.63546 5.69419 1.63546 3.91753C1.63546 2.96577 1.88922 2.09331 2.3334 1.33188C4.85562 4.44102 8.64688 6.47144 12.8981 6.69355C12.8188 6.31284 12.7712 5.91631 12.7712 5.51973C12.7712 2.69609 15.0555 0.395996 17.8949 0.395996C19.3702 0.395996 20.7026 1.01465 21.6386 2.01401C22.7965 1.79194 23.9069 1.36362 24.8905 0.776709C24.5097 1.96646 23.7007 2.96582 22.6379 3.60029C23.669 3.48931 24.6684 3.20371 25.5884 2.80718C24.8906 3.82236 24.0181 4.72651 23.0187 5.45625V5.45625Z" fill="black"/>
</svg>
